<?xml version="1.0" encoding="UTF-8" standalone="no"?>
<!DOCTYPE svg PUBLIC "-//W3C//DTD SVG 1.1//EN"
 "http://www.w3.org/Graphics/SVG/1.1/DTD/svg11.dtd">
<!-- Generated by graphviz version 2.44.0 ()
 -->
<!-- Title: kampanye Architecture Pages: 1 -->
<svg width="1049pt" height="1415pt"
 viewBox="0.00 0.00 1049.00 1415.00" xmlns="http://www.w3.org/2000/svg" xmlns:xlink="http://www.w3.org/1999/xlink">
<g id="graph0" class="graph" transform="scale(1 1) rotate(0) translate(144 1271)">
<title>kampanye Architecture</title>
<polygon fill="white" stroke="transparent" points="-144,144 -144,-1271 905,-1271 905,144 -144,144"/>
<text text-anchor="middle" x="380.5" y="-9" font-family="Sans-Serif" font-size="15.00" fill="#2d3436">kampanye Architecture</text>
<g id="clust4" class="cluster">
<title>cluster_GCP</title>
<path fill="#e5f5fd" stroke="#aeb6be" d="M330,-33C330,-33 741,-33 741,-33 747,-33 753,-39 753,-45 753,-45 753,-924 753,-924 753,-930 747,-936 741,-936 741,-936 330,-936 330,-936 324,-936 318,-930 318,-924 318,-924 318,-45 318,-45 318,-39 324,-33 330,-33"/>
<text text-anchor="middle" x="338.5" y="-922.4" font-family="Sans-Serif" font-size="12.00" fill="#2d3436">GCP</text>
</g>
<g id="clust5" class="cluster">
<title>cluster_GKE</title>
<path fill="#ebf3e7" stroke="#aeb6be" d="M485,-41C485,-41 733,-41 733,-41 739,-41 745,-47 745,-53 745,-53 745,-744 745,-744 745,-750 739,-756 733,-756 733,-756 485,-756 485,-756 479,-756 473,-750 473,-744 473,-744 473,-53 473,-53 473,-47 479,-41 485,-41"/>
<text text-anchor="middle" x="493.5" y="-742.4" font-family="Sans-Serif" font-size="12.00" fill="#2d3436">GKE</text>
</g>
<g id="clust1" class="cluster">
<title>cluster_Cloudflare</title>
<path fill="#e5f5fd" stroke="#aeb6be" d="M330,-944C330,-944 423,-944 423,-944 429,-944 435,-950 435,-956 435,-956 435,-1107 435,-1107 435,-1113 429,-1119 423,-1119 423,-1119 330,-1119 330,-1119 324,-1119 318,-1113 318,-1107 318,-1107 318,-956 318,-956 318,-950 324,-944 330,-944"/>
<text text-anchor="middle" x="353" y="-1105.4" font-family="Sans-Serif" font-size="12.00" fill="#2d3436">Cloudflare</text>
</g>
<g id="clust2" class="cluster">
<title>cluster_AWS</title>
<path fill="#e5f5fd" stroke="#aeb6be" d="M20,-280C20,-280 276,-280 276,-280 282,-280 288,-286 288,-292 288,-292 288,-660 288,-660 288,-666 282,-672 276,-672 276,-672 20,-672 20,-672 14,-672 8,-666 8,-660 8,-660 8,-292 8,-292 8,-286 14,-280 20,-280"/>
<text text-anchor="middle" x="30" y="-658.4" font-family="Sans-Serif" font-size="12.00" fill="#2d3436">AWS</text>
</g>
<g id="clust3" class="cluster">
<title>cluster_Kitabisa DB</title>
<path fill="#ebf3e7" stroke="#aeb6be" d="M175,-288C175,-288 268,-288 268,-288 274,-288 280,-294 280,-300 280,-300 280,-631 280,-631 280,-637 274,-643 268,-643 268,-643 175,-643 175,-643 169,-643 163,-637 163,-631 163,-631 163,-300 163,-300 163,-294 169,-288 175,-288"/>
<text text-anchor="middle" x="203" y="-629.4" font-family="Sans-Serif" font-size="12.00" fill="#2d3436">Kitabisa DB</text>
</g>
<!-- 0c4a5c7ceada4cd487a736dabac7a4eb -->
<g id="node1" class="node">
<title>0c4a5c7ceada4cd487a736dabac7a4eb</title>
<image xlink:href="/usr/local/lib/python3.9/site-packages/resources/onprem/network/haproxy.png" width="101px" height="101px" preserveAspectRatio="xMinYMin meet" x="326" y="-1071.5"/>
<text text-anchor="middle" x="376.5" y="-956.1" font-family="Sans-Serif" font-size="13.00" fill="#2d3436">WAF</text>
</g>
<!-- 7019cd08985a4d8b9060ac88bfdc18c0 -->
<g id="node5" class="node">
<title>7019cd08985a4d8b9060ac88bfdc18c0</title>
<image xlink:href="/usr/local/lib/python3.9/site-packages/resources/k8s/compute/pod.png" width="101px" height="101px" preserveAspectRatio="xMinYMin meet" x="481" y="-168.5"/>
<text text-anchor="middle" x="531.5" y="-53.1" font-family="Sans-Serif" font-size="13.00" fill="#2d3436">kampanye&#45;server</text>
</g>
<!-- 0c4a5c7ceada4cd487a736dabac7a4eb&#45;&gt;7019cd08985a4d8b9060ac88bfdc18c0 -->
<g id="edge7" class="edge">
<title>0c4a5c7ceada4cd487a736dabac7a4eb&#45;&gt;7019cd08985a4d8b9060ac88bfdc18c0</title>
<path fill="none" stroke="#7b8894" d="M427.33,-1021C441.94,-1021 454,-1021 454,-1021 454,-1021 454,-140.83 454,-140.83 454,-140.83 470.67,-140.83 470.67,-140.83"/>
<polygon fill="#7b8894" stroke="#7b8894" points="470.67,-144.33 480.67,-140.83 470.67,-137.33 470.67,-144.33"/>
</g>
<!-- 9cb77035f5d94bcca1e5245e2133cf25 -->
<g id="node2" class="node">
<title>9cb77035f5d94bcca1e5245e2133cf25</title>
<image xlink:href="/usr/local/lib/python3.9/site-packages/resources/aws/compute/ec2.png" width="101px" height="101px" preserveAspectRatio="xMinYMin meet" x="16" y="-415.5"/>
<text text-anchor="middle" x="66.5" y="-300.1" font-family="Sans-Serif" font-size="13.00" fill="#2d3436">ProxySQL</text>
</g>
<!-- d3db6c565f7c4e369644e501c6f7d52e -->
<g id="node3" class="node">
<title>d3db6c565f7c4e369644e501c6f7d52e</title>
<image xlink:href="/usr/local/lib/python3.9/site-packages/resources/aws/database/rds.png" width="101px" height="101px" preserveAspectRatio="xMinYMin meet" x="171" y="-595.5"/>
<text text-anchor="middle" x="221.5" y="-480.1" font-family="Sans-Serif" font-size="13.00" fill="#2d3436">kitabisa&#45;master</text>
</g>
<!-- 9cb77035f5d94bcca1e5245e2133cf25&#45;&gt;d3db6c565f7c4e369644e501c6f7d52e -->
<g id="edge1" class="edge">
<title>9cb77035f5d94bcca1e5245e2133cf25&#45;&gt;d3db6c565f7c4e369644e501c6f7d52e</title>
<path fill="none" stroke="#7b8894" d="M67,-433.56C67,-484.43 67,-545 67,-545 67,-545 160.91,-545 160.91,-545"/>
<polygon fill="#7b8894" stroke="#7b8894" points="160.91,-548.5 170.91,-545 160.91,-541.5 160.91,-548.5"/>
</g>
<!-- 2277dccaa9044424ab47c640b4c494dd -->
<g id="node4" class="node">
<title>2277dccaa9044424ab47c640b4c494dd</title>
<image xlink:href="/usr/local/lib/python3.9/site-packages/resources/aws/database/rds.png" width="101px" height="101px" preserveAspectRatio="xMinYMin meet" x="171" y="-415.5"/>
<text text-anchor="middle" x="221.5" y="-300.1" font-family="Sans-Serif" font-size="13.00" fill="#2d3436">kitabisa&#45;replica</text>
</g>
<!-- 9cb77035f5d94bcca1e5245e2133cf25&#45;&gt;2277dccaa9044424ab47c640b4c494dd -->
<g id="edge2" class="edge">
<title>9cb77035f5d94bcca1e5245e2133cf25&#45;&gt;2277dccaa9044424ab47c640b4c494dd</title>
<path fill="none" stroke="#7b8894" d="M117.25,-365C117.25,-365 160.9,-365 160.9,-365"/>
<polygon fill="#7b8894" stroke="#7b8894" points="160.9,-368.5 170.9,-365 160.9,-361.5 160.9,-368.5"/>
</g>
<!-- 8e9cda60d5fe493597561a5b76f82d96 -->
<g id="node9" class="node">
<title>8e9cda60d5fe493597561a5b76f82d96</title>
<image xlink:href="/usr/local/lib/python3.9/site-packages/resources/onprem/queue/kafka.png" width="101px" height="101px" preserveAspectRatio="xMinYMin meet" x="326" y="-438.5"/>
<text text-anchor="middle" x="376.5" y="-323.1" font-family="Sans-Serif" font-size="13.00" fill="#2d3436">kafka</text>
</g>
<!-- 2277dccaa9044424ab47c640b4c494dd&#45;&gt;8e9cda60d5fe493597561a5b76f82d96 -->
<g id="edge6" class="edge">
<title>2277dccaa9044424ab47c640b4c494dd&#45;&gt;8e9cda60d5fe493597561a5b76f82d96</title>
<path fill="none" stroke="#7b8894" d="M272.25,-376.5C272.25,-376.5 315.9,-376.5 315.9,-376.5"/>
<polygon fill="#7b8894" stroke="#7b8894" points="315.9,-380 325.9,-376.5 315.9,-373 315.9,-380"/>
</g>
<!-- 7019cd08985a4d8b9060ac88bfdc18c0&#45;&gt;9cb77035f5d94bcca1e5245e2133cf25 -->
<g id="edge9" class="edge">
<title>7019cd08985a4d8b9060ac88bfdc18c0&#45;&gt;9cb77035f5d94bcca1e5245e2133cf25</title>
<path fill="none" stroke="#7b8894" d="M480.91,-95.17C360.52,-95.17 67,-95.17 67,-95.17 67,-95.17 67,-286.21 67,-286.21"/>
<polygon fill="#7b8894" stroke="#7b8894" points="63.5,-286.21 67,-296.21 70.5,-286.21 63.5,-286.21"/>
</g>
<!-- a49a3e7f569f4d558846abd4e345ea1c -->
<g id="node6" class="node">
<title>a49a3e7f569f4d558846abd4e345ea1c</title>
<image xlink:href="/usr/local/lib/python3.9/site-packages/resources/k8s/compute/pod.png" width="101px" height="101px" preserveAspectRatio="xMinYMin meet" x="636" y="-528.5"/>
<text text-anchor="middle" x="686.5" y="-413.1" font-family="Sans-Serif" font-size="13.00" fill="#2d3436">steril</text>
</g>
<!-- 7019cd08985a4d8b9060ac88bfdc18c0&#45;&gt;a49a3e7f569f4d558846abd4e345ea1c -->
<g id="edge3" class="edge">
<title>7019cd08985a4d8b9060ac88bfdc18c0&#45;&gt;a49a3e7f569f4d558846abd4e345ea1c</title>
<path fill="none" stroke="#7b8894" d="M582.25,-104.3C605.94,-104.3 629,-104.3 629,-104.3 629,-104.3 629,-455.17 629,-455.17 629,-455.17 629.66,-455.17 629.66,-455.17"/>
<polygon fill="#7b8894" stroke="#7b8894" points="625.6,-458.67 635.6,-455.17 625.6,-451.67 625.6,-458.67"/>
</g>
<!-- 6537e1c21f704c9eb2565959ce348c5d -->
<g id="node7" class="node">
<title>6537e1c21f704c9eb2565959ce348c5d</title>
<image xlink:href="/usr/local/lib/python3.9/site-packages/resources/k8s/compute/pod.png" width="101px" height="101px" preserveAspectRatio="xMinYMin meet" x="636" y="-168.5"/>
<text text-anchor="middle" x="686.5" y="-53.1" font-family="Sans-Serif" font-size="13.00" fill="#2d3436">campaignership</text>
</g>
<!-- 7019cd08985a4d8b9060ac88bfdc18c0&#45;&gt;6537e1c21f704c9eb2565959ce348c5d -->
<g id="edge4" class="edge">
<title>7019cd08985a4d8b9060ac88bfdc18c0&#45;&gt;6537e1c21f704c9eb2565959ce348c5d</title>
<path fill="none" stroke="#7b8894" d="M582.25,-76.9C582.25,-76.9 625.9,-76.9 625.9,-76.9"/>
<polygon fill="#7b8894" stroke="#7b8894" points="625.9,-80.4 635.9,-76.9 625.9,-73.4 625.9,-80.4"/>
</g>
<!-- e3812a26e4f044a7aa26b4976b43058f -->
<g id="node8" class="node">
<title>e3812a26e4f044a7aa26b4976b43058f</title>
<image xlink:href="/usr/local/lib/python3.9/site-packages/resources/k8s/compute/pod.png" width="101px" height="101px" preserveAspectRatio="xMinYMin meet" x="636" y="-348.5"/>
<text text-anchor="middle" x="686.5" y="-233.1" font-family="Sans-Serif" font-size="13.00" fill="#2d3436">wong</text>
</g>
<!-- 7019cd08985a4d8b9060ac88bfdc18c0&#45;&gt;e3812a26e4f044a7aa26b4976b43058f -->
<g id="edge5" class="edge">
<title>7019cd08985a4d8b9060ac88bfdc18c0&#45;&gt;e3812a26e4f044a7aa26b4976b43058f</title>
<path fill="none" stroke="#7b8894" d="M532,-186.67C532,-198.99 532,-208 532,-208 532,-208 687,-208 687,-208 687,-208 687,-219.33 687,-219.33"/>
<polygon fill="#7b8894" stroke="#7b8894" points="683.5,-219.33 687,-229.33 690.5,-219.33 683.5,-219.33"/>
</g>
<!-- fc5f3b81e8cb438f8c5379d8e0541463 -->
<g id="node10" class="node">
<title>fc5f3b81e8cb438f8c5379d8e0541463</title>
<image xlink:href="/usr/local/lib/python3.9/site-packages/resources/gcp/database/sql.png" width="101px" height="101px" preserveAspectRatio="xMinYMin meet" x="636" y="-888.5"/>
<text text-anchor="middle" x="686.5" y="-773.1" font-family="Sans-Serif" font-size="13.00" fill="#2d3436">kampanye</text>
</g>
<!-- 7019cd08985a4d8b9060ac88bfdc18c0&#45;&gt;fc5f3b81e8cb438f8c5379d8e0541463 -->
<g id="edge8" class="edge">
<title>7019cd08985a4d8b9060ac88bfdc18c0&#45;&gt;fc5f3b81e8cb438f8c5379d8e0541463</title>
<path fill="none" stroke="#7b8894" d="M582.02,-159.1C595.3,-159.1 606,-159.1 606,-159.1 606,-159.1 606,-796.9 606,-796.9 606,-796.9 625.98,-796.9 625.98,-796.9"/>
<polygon fill="#7b8894" stroke="#7b8894" points="625.98,-800.4 635.98,-796.9 625.98,-793.4 625.98,-800.4"/>
</g>
<!-- b03437929d714e0b8a42380d9fd44886 -->
<g id="node14" class="node">
<title>b03437929d714e0b8a42380d9fd44886</title>
<image xlink:href="/usr/local/lib/python3.9/site-packages/resources/onprem/inmemory/redis.png" width="101px" height="101px" preserveAspectRatio="xMinYMin meet" x="636" y="-708.5"/>
<text text-anchor="middle" x="686.5" y="-593.1" font-family="Sans-Serif" font-size="13.00" fill="#2d3436">redis</text>
</g>
<!-- 7019cd08985a4d8b9060ac88bfdc18c0&#45;&gt;b03437929d714e0b8a42380d9fd44886 -->
<g id="edge16" class="edge">
<title>7019cd08985a4d8b9060ac88bfdc18c0&#45;&gt;b03437929d714e0b8a42380d9fd44886</title>
<path fill="none" stroke="#7b8894" d="M582,-131.7C602.31,-131.7 621,-131.7 621,-131.7 621,-131.7 621,-623.75 621,-623.75 621,-623.75 625.86,-623.75 625.86,-623.75"/>
<polygon fill="#7b8894" stroke="#7b8894" points="625.86,-627.25 635.86,-623.75 625.86,-620.25 625.86,-627.25"/>
</g>
<!-- 6a3fe1f54b7d425f884d9cf1a4180cc8 -->
<g id="node11" class="node">
<title>6a3fe1f54b7d425f884d9cf1a4180cc8</title>
<image xlink:href="/usr/local/lib/python3.9/site-packages/resources/k8s/compute/pod.png" width="101px" height="101px" preserveAspectRatio="xMinYMin meet" x="481" y="-528.5"/>
<text text-anchor="middle" x="531.5" y="-413.1" font-family="Sans-Serif" font-size="13.00" fill="#2d3436">worker&#45;projects</text>
</g>
<!-- 8e9cda60d5fe493597561a5b76f82d96&#45;&gt;6a3fe1f54b7d425f884d9cf1a4180cc8 -->
<g id="edge10" class="edge">
<title>8e9cda60d5fe493597561a5b76f82d96&#45;&gt;6a3fe1f54b7d425f884d9cf1a4180cc8</title>
<path fill="none" stroke="#7b8894" d="M427.25,-433C427.25,-433 470.9,-433 470.9,-433"/>
<polygon fill="#7b8894" stroke="#7b8894" points="470.9,-436.5 480.9,-433 470.9,-429.5 470.9,-436.5"/>
</g>
<!-- a7b2ff9d60904530bc0ac301b9f19a54 -->
<g id="node12" class="node">
<title>a7b2ff9d60904530bc0ac301b9f19a54</title>
<image xlink:href="/usr/local/lib/python3.9/site-packages/resources/k8s/compute/pod.png" width="101px" height="101px" preserveAspectRatio="xMinYMin meet" x="481" y="-348.5"/>
<text text-anchor="middle" x="531.5" y="-233.1" font-family="Sans-Serif" font-size="13.00" fill="#2d3436">worker&#45;project&#45;statuses</text>
</g>
<!-- 8e9cda60d5fe493597561a5b76f82d96&#45;&gt;a7b2ff9d60904530bc0ac301b9f19a54 -->
<g id="edge12" class="edge">
<title>8e9cda60d5fe493597561a5b76f82d96&#45;&gt;a7b2ff9d60904530bc0ac301b9f19a54</title>
<path fill="none" stroke="#7b8894" d="M427.25,-343C427.25,-343 470.9,-343 470.9,-343"/>
<polygon fill="#7b8894" stroke="#7b8894" points="470.9,-346.5 480.9,-343 470.9,-339.5 470.9,-346.5"/>
</g>
<!-- 06e7dbaa28ea4325b04e6ce72be72bd1 -->
<g id="node13" class="node">
<title>06e7dbaa28ea4325b04e6ce72be72bd1</title>
<image xlink:href="/usr/local/lib/python3.9/site-packages/resources/k8s/compute/pod.png" width="101px" height="101px" preserveAspectRatio="xMinYMin meet" x="481" y="-708.5"/>
<text text-anchor="middle" x="531.5" y="-593.1" font-family="Sans-Serif" font-size="13.00" fill="#2d3436">worker&#45;project&#45;categories</text>
</g>
<!-- 8e9cda60d5fe493597561a5b76f82d96&#45;&gt;06e7dbaa28ea4325b04e6ce72be72bd1 -->
<g id="edge14" class="edge">
<title>8e9cda60d5fe493597561a5b76f82d96&#45;&gt;06e7dbaa28ea4325b04e6ce72be72bd1</title>
<path fill="none" stroke="#7b8894" d="M377,-456.73C377,-519.14 377,-601.5 377,-601.5 377,-601.5 470.91,-601.5 470.91,-601.5"/>
<polygon fill="#7b8894" stroke="#7b8894" points="470.91,-605 480.91,-601.5 470.91,-598 470.91,-605"/>
</g>
<!-- 6a3fe1f54b7d425f884d9cf1a4180cc8&#45;&gt;fc5f3b81e8cb438f8c5379d8e0541463 -->
<g id="edge11" class="edge">
<title>6a3fe1f54b7d425f884d9cf1a4180cc8&#45;&gt;fc5f3b81e8cb438f8c5379d8e0541463</title>
<path fill="none" stroke="#7b8894" d="M582.35,-500.83C587,-500.83 590,-500.83 590,-500.83 590,-500.83 590,-851.7 590,-851.7 590,-851.7 625.99,-851.7 625.99,-851.7"/>
<polygon fill="#7b8894" stroke="#7b8894" points="625.99,-855.2 635.99,-851.7 625.99,-848.2 625.99,-855.2"/>
</g>
<!-- 6a3fe1f54b7d425f884d9cf1a4180cc8&#45;&gt;b03437929d714e0b8a42380d9fd44886 -->
<g id="edge17" class="edge">
<title>6a3fe1f54b7d425f884d9cf1a4180cc8&#45;&gt;b03437929d714e0b8a42380d9fd44886</title>
<path fill="none" stroke="#7b8894" d="M532,-546.67C532,-558.99 532,-568 532,-568 532,-568 687,-568 687,-568 687,-568 687,-579.33 687,-579.33"/>
<polygon fill="#7b8894" stroke="#7b8894" points="683.5,-579.33 687,-589.33 690.5,-579.33 683.5,-579.33"/>
</g>
<!-- a7b2ff9d60904530bc0ac301b9f19a54&#45;&gt;fc5f3b81e8cb438f8c5379d8e0541463 -->
<g id="edge13" class="edge">
<title>a7b2ff9d60904530bc0ac301b9f19a54&#45;&gt;fc5f3b81e8cb438f8c5379d8e0541463</title>
<path fill="none" stroke="#7b8894" d="M582.24,-320.83C591.34,-320.83 598,-320.83 598,-320.83 598,-320.83 598,-824.3 598,-824.3 598,-824.3 625.79,-824.3 625.79,-824.3"/>
<polygon fill="#7b8894" stroke="#7b8894" points="625.79,-827.8 635.79,-824.3 625.79,-820.8 625.79,-827.8"/>
</g>
<!-- a7b2ff9d60904530bc0ac301b9f19a54&#45;&gt;b03437929d714e0b8a42380d9fd44886 -->
<g id="edge18" class="edge">
<title>a7b2ff9d60904530bc0ac301b9f19a54&#45;&gt;b03437929d714e0b8a42380d9fd44886</title>
<path fill="none" stroke="#7b8894" d="M582.19,-275.17C598.76,-275.17 613,-275.17 613,-275.17 613,-275.17 613,-658 613,-658 613,-658 625.85,-658 625.85,-658"/>
<polygon fill="#7b8894" stroke="#7b8894" points="625.85,-661.5 635.85,-658 625.85,-654.5 625.85,-661.5"/>
</g>
<!-- 06e7dbaa28ea4325b04e6ce72be72bd1&#45;&gt;fc5f3b81e8cb438f8c5379d8e0541463 -->
<g id="edge15" class="edge">
<title>06e7dbaa28ea4325b04e6ce72be72bd1&#45;&gt;fc5f3b81e8cb438f8c5379d8e0541463</title>
<path fill="none" stroke="#7b8894" d="M532,-726.75C532,-791.65 532,-879.1 532,-879.1 532,-879.1 625.91,-879.1 625.91,-879.1"/>
<polygon fill="#7b8894" stroke="#7b8894" points="625.91,-882.6 635.91,-879.1 625.91,-875.6 625.91,-882.6"/>
</g>
<!-- 06e7dbaa28ea4325b04e6ce72be72bd1&#45;&gt;b03437929d714e0b8a42380d9fd44886 -->
<g id="edge19" class="edge">
<title>06e7dbaa28ea4325b04e6ce72be72bd1&#45;&gt;b03437929d714e0b8a42380d9fd44886</title>
<path fill="none" stroke="#7b8894" d="M582.25,-692.25C582.25,-692.25 625.9,-692.25 625.9,-692.25"/>
<polygon fill="#7b8894" stroke="#7b8894" points="625.9,-695.75 635.9,-692.25 625.9,-688.75 625.9,-695.75"/>
</g>
</g>
</svg>
